{"title":"Mr.Robot.S01.720p.BluRay.x264-DEMAND [Mister Robot Season 1 One]","uid":15600014,"size":25161848791,"categoryP":"video","categoryS":"hd___tv_shows","magnet":"?xt=urn:btih:720f5ef8a44c29da790c8f8b62fad9bd3d24ab36&amp;dn=Mr.Robot.S01.720p.BluRay.x264-DEMAND+%5BMister+Robot+Season+1+One%5D&amp;tr=udp%3A%2F%2Ftracker.leechers-paradise.org%3A6969&amp;tr=udp%3A%2F%2Fzer0day.ch%3A1337&amp;tr=udp%3A%2F%2Fopen.demonii.com%3A1337&amp;tr=udp%3A%2F%2Ftracker.coppersurfer.tk%3A6969&amp;tr=udp%3A%2F%2Fexodus.desync.com%3A6969","seeders":13,"leechers":8,"uploader":"GoodFilms","files":32,"time":1471622214,"description":"http://www.imdb.com/title/tt4158110/\r\n\r\nVideo\r\nID                                       : 1\r\nFormat                                   : AVC\r\nFormat/Info                              : Advanced Video Codec\r\nFormat profile                           :   \r\nFormat settings, CABAC                   : Yes\r\nFormat settings, ReFrames                : 5 frames\r\nCodec ID                                 : V_MPEG4/ISO/AVC\r\nDuration                                 : 1h 4mn\r\nBit rate                                 : 5 715 Kbps\r\nWidth                                    : 1 280 pixels\r\nHeight                                   : 720 pixels\r\nDisplay aspect ratio                     : 16:9\r\nFrame rate mode                          : Constant\r\nFrame rate                               : 23.976 fps\r\nColor space                              : YUV\r\nChroma subsampling                       : 4:2:0\r\nBit depth                                : 8 bits\r\nScan type                                : Progressive\r\nBits/(Pixel*Frame)                       : 0.259\r\nStream size                              : 2.59 GiB (79%)\r\nWriting library                          : x264 core 148 r2638 7599210\r\nLanguage                                 : English\r\nDefault                                  : Yes\r\nForced                                   : No\r\n\r\nAudio\r\nID                                       : 2\r\nFormat                                   : DTS\r\nFormat/Info                              : Digital Theater Systems\r\nMode                                     : 16\r\nFormat settings, Endianness              : Big\r\nCodec ID                                 : A_DTS\r\nDuration                                 : 1h 4mn\r\nBit rate mode                            : Constant\r\nBit rate                                 : 1 509 Kbps\r\nChannel(s)                               : 6 channels\r\nChannel positions                        : Front: L C R, Side: L R, LFE\r\nSampling rate                            : 48.0 KHz\r\nFrame rate                               : 93.750 fps (512 spf)\r\nBit depth                                : 24 bits\r\nCompression mode                         : Lossy\r\nStream size                              : 701 MiB (21%)\r\nLanguage                                 : English\r\nDefault                                  : Yes\r\nForced                                   : No\r\n\r\nMenu\r\n00:00:00.000                             : en:00:00:00.000\r\n00:06:35.562                             : en:00:06:35.562\r\n00:31:28.637                             : en:00:31:28.637\r\n00:43:58.845                             : en:00:43:58.845\r\n\r\nSubs:  https://subscene.com/subtitles/mr-robot/english/1253561","torrent":{"xt":"urn:btih:720f5ef8a44c29da790c8f8b62fad9bd3d24ab36","amp;dn":"Mr.Robot.S01.720p.BluRay.x264-DEMAND+%5BMister+Robot+Season+1+One%5D","amp;tr":["udp%3A%2F%2Ftracker.leechers-paradise.org%3A6969","udp%3A%2F%2Fzer0day.ch%3A1337","udp%3A%2F%2Fopen.demonii.com%3A1337","udp%3A%2F%2Ftracker.coppersurfer.tk%3A6969","udp%3A%2F%2Fexodus.desync.com%3A6969"],"infoHash":"720f5ef8a44c29da790c8f8b62fad9bd3d24ab36","infoHashBuffer":{"type":"Buffer","data":[114,15,94,248,164,76,41,218,121,12,143,139,98,250,217,189,61,36,171,54]},"announce":[],"urlList":[]}}